<mxfile host="Electron" modified="2025-01-28T10:29:47.973Z" agent="Mozilla/5.0 (Windows NT 10.0; Win64; x64) AppleWebKit/537.36 (KHTML, like Gecko) draw.io/22.0.3 Chrome/114.0.5735.289 Electron/25.8.4 Safari/537.36" etag="Ecl-pRGifqraz01WAK0U" version="22.0.3" type="device">
  <diagram name="Page-1" id="ULKSKXc4QbHkLUuDfPdx">
    <mxGraphModel dx="422" dy="392" grid="1" gridSize="10" guides="1" tooltips="1" connect="1" arrows="1" fold="1" page="1" pageScale="1" pageWidth="827" pageHeight="1169" math="0" shadow="0">
      <root>
        <mxCell id="0" />
        <mxCell id="1" parent="0" />
        <mxCell id="beMnfkcY6VdofpFy13Dn-4" value="" style="group" vertex="1" connectable="0" parent="1">
          <mxGeometry x="160" y="110" width="160" height="250" as="geometry" />
        </mxCell>
        <mxCell id="YOwO7VZgR4k9qDpcplwb-1" value="" style="endArrow=none;html=1;rounded=0;" parent="beMnfkcY6VdofpFy13Dn-4" edge="1">
          <mxGeometry width="50" height="50" relative="1" as="geometry">
            <mxPoint y="190" as="sourcePoint" />
            <mxPoint x="80" y="150" as="targetPoint" />
          </mxGeometry>
        </mxCell>
        <mxCell id="YOwO7VZgR4k9qDpcplwb-2" value="" style="endArrow=none;html=1;rounded=0;" parent="beMnfkcY6VdofpFy13Dn-4" edge="1">
          <mxGeometry width="50" height="50" relative="1" as="geometry">
            <mxPoint x="80" y="210" as="sourcePoint" />
            <mxPoint x="160" y="170" as="targetPoint" />
          </mxGeometry>
        </mxCell>
        <mxCell id="YOwO7VZgR4k9qDpcplwb-3" value="" style="endArrow=none;html=1;rounded=0;" parent="beMnfkcY6VdofpFy13Dn-4" edge="1">
          <mxGeometry width="50" height="50" relative="1" as="geometry">
            <mxPoint x="80" y="150" as="sourcePoint" />
            <mxPoint x="160" y="170" as="targetPoint" />
          </mxGeometry>
        </mxCell>
        <mxCell id="YOwO7VZgR4k9qDpcplwb-4" value="" style="endArrow=none;html=1;rounded=0;" parent="beMnfkcY6VdofpFy13Dn-4" edge="1">
          <mxGeometry width="50" height="50" relative="1" as="geometry">
            <mxPoint y="190" as="sourcePoint" />
            <mxPoint x="80" y="210" as="targetPoint" />
          </mxGeometry>
        </mxCell>
        <mxCell id="YOwO7VZgR4k9qDpcplwb-5" value="" style="endArrow=none;html=1;rounded=0;" parent="beMnfkcY6VdofpFy13Dn-4" edge="1">
          <mxGeometry width="50" height="50" relative="1" as="geometry">
            <mxPoint x="80" y="210" as="sourcePoint" />
            <mxPoint x="80" y="250" as="targetPoint" />
          </mxGeometry>
        </mxCell>
        <mxCell id="YOwO7VZgR4k9qDpcplwb-6" value="" style="endArrow=none;html=1;rounded=0;" parent="beMnfkcY6VdofpFy13Dn-4" edge="1">
          <mxGeometry width="50" height="50" relative="1" as="geometry">
            <mxPoint y="190" as="sourcePoint" />
            <mxPoint y="230" as="targetPoint" />
          </mxGeometry>
        </mxCell>
        <mxCell id="YOwO7VZgR4k9qDpcplwb-7" value="" style="endArrow=none;html=1;rounded=0;" parent="beMnfkcY6VdofpFy13Dn-4" edge="1">
          <mxGeometry width="50" height="50" relative="1" as="geometry">
            <mxPoint y="230" as="sourcePoint" />
            <mxPoint x="80" y="250" as="targetPoint" />
          </mxGeometry>
        </mxCell>
        <mxCell id="YOwO7VZgR4k9qDpcplwb-8" value="" style="endArrow=none;html=1;rounded=0;" parent="beMnfkcY6VdofpFy13Dn-4" edge="1">
          <mxGeometry width="50" height="50" relative="1" as="geometry">
            <mxPoint x="80" y="250" as="sourcePoint" />
            <mxPoint x="160" y="210" as="targetPoint" />
          </mxGeometry>
        </mxCell>
        <mxCell id="YOwO7VZgR4k9qDpcplwb-9" value="" style="endArrow=none;html=1;rounded=0;" parent="beMnfkcY6VdofpFy13Dn-4" edge="1">
          <mxGeometry width="50" height="50" relative="1" as="geometry">
            <mxPoint x="160" y="170" as="sourcePoint" />
            <mxPoint x="160" y="210" as="targetPoint" />
          </mxGeometry>
        </mxCell>
        <mxCell id="YOwO7VZgR4k9qDpcplwb-11" value="" style="endArrow=none;html=1;rounded=0;" parent="beMnfkcY6VdofpFy13Dn-4" edge="1">
          <mxGeometry width="50" height="50" relative="1" as="geometry">
            <mxPoint x="80" y="180" as="sourcePoint" />
            <mxPoint x="80" y="100" as="targetPoint" />
          </mxGeometry>
        </mxCell>
        <mxCell id="YOwO7VZgR4k9qDpcplwb-13" value="" style="endArrow=none;html=1;rounded=0;" parent="beMnfkcY6VdofpFy13Dn-4" edge="1">
          <mxGeometry width="50" height="50" relative="1" as="geometry">
            <mxPoint x="40" y="180" as="sourcePoint" />
            <mxPoint x="80" y="160" as="targetPoint" />
          </mxGeometry>
        </mxCell>
        <mxCell id="YOwO7VZgR4k9qDpcplwb-14" value="" style="endArrow=none;html=1;rounded=0;" parent="beMnfkcY6VdofpFy13Dn-4" edge="1">
          <mxGeometry width="50" height="50" relative="1" as="geometry">
            <mxPoint x="80" y="160" as="sourcePoint" />
            <mxPoint x="120" y="170" as="targetPoint" />
          </mxGeometry>
        </mxCell>
        <mxCell id="YOwO7VZgR4k9qDpcplwb-15" value="" style="endArrow=none;html=1;rounded=0;" parent="beMnfkcY6VdofpFy13Dn-4" edge="1">
          <mxGeometry width="50" height="50" relative="1" as="geometry">
            <mxPoint x="80" y="190" as="sourcePoint" />
            <mxPoint x="120" y="170" as="targetPoint" />
          </mxGeometry>
        </mxCell>
        <mxCell id="YOwO7VZgR4k9qDpcplwb-16" value="" style="endArrow=none;html=1;rounded=0;" parent="beMnfkcY6VdofpFy13Dn-4" edge="1">
          <mxGeometry width="50" height="50" relative="1" as="geometry">
            <mxPoint x="40" y="180" as="sourcePoint" />
            <mxPoint x="80" y="190" as="targetPoint" />
          </mxGeometry>
        </mxCell>
        <mxCell id="YOwO7VZgR4k9qDpcplwb-17" value="" style="endArrow=none;html=1;rounded=0;" parent="beMnfkcY6VdofpFy13Dn-4" edge="1">
          <mxGeometry width="50" height="50" relative="1" as="geometry">
            <mxPoint x="80" y="200" as="sourcePoint" />
            <mxPoint x="80" y="190" as="targetPoint" />
          </mxGeometry>
        </mxCell>
        <mxCell id="YOwO7VZgR4k9qDpcplwb-18" value="" style="endArrow=none;html=1;rounded=0;" parent="beMnfkcY6VdofpFy13Dn-4" edge="1">
          <mxGeometry width="50" height="50" relative="1" as="geometry">
            <mxPoint x="40" y="180" as="sourcePoint" />
            <mxPoint x="40" y="190" as="targetPoint" />
          </mxGeometry>
        </mxCell>
        <mxCell id="YOwO7VZgR4k9qDpcplwb-19" value="" style="endArrow=none;html=1;rounded=0;" parent="beMnfkcY6VdofpFy13Dn-4" edge="1">
          <mxGeometry width="50" height="50" relative="1" as="geometry">
            <mxPoint x="120" y="170" as="sourcePoint" />
            <mxPoint x="120" y="180" as="targetPoint" />
          </mxGeometry>
        </mxCell>
        <mxCell id="YOwO7VZgR4k9qDpcplwb-20" value="" style="endArrow=none;html=1;rounded=0;" parent="beMnfkcY6VdofpFy13Dn-4" edge="1">
          <mxGeometry width="50" height="50" relative="1" as="geometry">
            <mxPoint x="80" y="200" as="sourcePoint" />
            <mxPoint x="120" y="180" as="targetPoint" />
          </mxGeometry>
        </mxCell>
        <mxCell id="YOwO7VZgR4k9qDpcplwb-21" value="" style="endArrow=none;html=1;rounded=0;" parent="beMnfkcY6VdofpFy13Dn-4" edge="1">
          <mxGeometry width="50" height="50" relative="1" as="geometry">
            <mxPoint x="40" y="190" as="sourcePoint" />
            <mxPoint x="80" y="200" as="targetPoint" />
          </mxGeometry>
        </mxCell>
        <mxCell id="YOwO7VZgR4k9qDpcplwb-25" value="" style="shape=cylinder3;whiteSpace=wrap;html=1;boundedLbl=1;backgroundOutline=1;size=3.3333333333333997;" parent="beMnfkcY6VdofpFy13Dn-4" vertex="1">
          <mxGeometry x="120" width="10" height="80" as="geometry" />
        </mxCell>
        <mxCell id="YOwO7VZgR4k9qDpcplwb-27" value="" style="endArrow=none;html=1;rounded=0;" parent="beMnfkcY6VdofpFy13Dn-4" edge="1">
          <mxGeometry width="50" height="50" relative="1" as="geometry">
            <mxPoint x="40" y="120" as="sourcePoint" />
            <mxPoint x="120" y="80" as="targetPoint" />
          </mxGeometry>
        </mxCell>
        <mxCell id="YOwO7VZgR4k9qDpcplwb-28" value="" style="shape=cylinder3;whiteSpace=wrap;html=1;boundedLbl=1;backgroundOutline=1;size=3.3333333333333997;" parent="beMnfkcY6VdofpFy13Dn-4" vertex="1">
          <mxGeometry x="75" y="20" width="10" height="80" as="geometry" />
        </mxCell>
        <mxCell id="YOwO7VZgR4k9qDpcplwb-29" value="" style="shape=cylinder3;whiteSpace=wrap;html=1;boundedLbl=1;backgroundOutline=1;size=3.3333333333333997;" parent="beMnfkcY6VdofpFy13Dn-4" vertex="1">
          <mxGeometry x="31" y="40" width="10" height="80" as="geometry" />
        </mxCell>
      </root>
    </mxGraphModel>
  </diagram>
</mxfile>
